<svg width="350" height="392" viewBox="0 0 350 392" fill="none" xmlns="http://www.w3.org/2000/svg">
<path d="M18.092 290.36L32.4676 298.66L192.618 21.2802L178.242 12.9802L18.092 290.36Z" fill="#007ACC"/>
<path d="M335.1 268.2H14.8V284.8H335.1V268.2Z" fill="#007ACC"/>
<path d="M21.1379 277.526L181.348 370.026L189.648 355.65L29.4379 263.15L21.1379 277.526Z" fill="#007ACC"/>
<path d="M160.312 36.4467L320.522 128.947L328.822 114.571L168.612 22.0711L160.312 36.4467Z" fill="#007ACC"/>
<path d="M21.1823 114.508L29.4823 128.884L189.692 36.3835L181.392 22.0079L21.1823 114.508Z" fill="#007ACC"/>
<path d="M157.418 21.2832L317.568 298.663L331.944 290.363L171.794 12.9832L157.418 21.2832Z" fill="#007ACC"/>
<path d="M44.1 103.5H27.5V288.5H44.1V103.5Z" fill="#007ACC"/>
<path d="M322.5 103.5H305.9V288.5H322.5V103.5Z" fill="#007ACC"/>
<path d="M171.272 350.442L178.522 362.999L317.861 282.549L310.611 269.992L171.272 350.442Z" fill="#007ACC"/>
<path d="M344.5 293.9C334.9 310.6 313.5 316.3 296.8 306.7C280.1 297.1 274.4 275.7 284 259C293.6 242.3 315 236.6 331.7 246.2C348.5 255.9 354.2 277.2 344.5 293.9Z" fill="#007ACC"/>
<path d="M65.9 133C56.3 149.7 34.9 155.4 18.2 145.8C1.5 136.2 -4.2 114.8 5.4 98.1C15 81.4 36.4 75.7 53.1 85.3C69.8 95 75.5 116.3 65.9 133Z" fill="#007ACC"/>
<path d="M5.5 293.9C-4.1 277.2 1.59999 255.9 18.3 246.2C35 236.6 56.3 242.3 66 259C75.6 275.7 69.9 297 53.2 306.7C36.4 316.3 15.1 310.6 5.5 293.9Z" fill="#007ACC"/>
<path d="M284.1 133C274.5 116.3 280.2 95 296.9 85.3C313.6 75.7 334.9 81.4 344.6 98.1C354.2 114.8 348.5 136.1 331.8 145.8C315.1 155.4 293.7 149.7 284.1 133Z" fill="#007ACC"/>
<path d="M175 391.8C155.7 391.8 140.1 376.2 140.1 356.9C140.1 337.6 155.7 322 175 322C194.3 322 209.9 337.6 209.9 356.9C209.9 376.1 194.3 391.8 175 391.8Z" fill="#007ACC"/>
<path d="M175 70C155.7 70 140.1 54.4 140.1 35.1C140.1 15.8 155.7 0.200012 175 0.200012C194.3 0.200012 209.9 15.8 209.9 35.1C209.9 54.4 194.3 70 175 70Z" fill="#007ACC"/>
<path d="M174.971 188.145V202.816H150.182V271H132.756V202.816H107.855V188.145H174.971ZM197.68 245.424C198.205 249.209 199.235 252.038 200.772 253.912C203.582 257.322 208.398 259.027 215.218 259.027C219.303 259.027 222.619 258.577 225.167 257.678C230.001 255.954 232.418 252.75 232.418 248.066C232.418 245.33 231.219 243.213 228.821 241.714C226.423 240.253 222.656 238.96 217.523 237.836L208.754 235.868C200.135 233.92 194.176 231.802 190.879 229.516C185.295 225.694 182.503 219.717 182.503 211.585C182.503 204.165 185.201 198.001 190.597 193.092C195.994 188.183 203.919 185.728 214.375 185.728C223.106 185.728 230.545 188.051 236.69 192.698C242.874 197.307 246.115 204.015 246.415 212.822H229.776C229.477 207.838 227.303 204.296 223.256 202.198C220.558 200.811 217.204 200.118 213.194 200.118C208.735 200.118 205.175 201.017 202.514 202.816C199.854 204.615 198.523 207.126 198.523 210.348C198.523 213.309 199.835 215.52 202.458 216.981C204.144 217.956 207.742 219.099 213.25 220.41L227.528 223.839C233.786 225.338 238.508 227.343 241.693 229.854C246.64 233.751 249.113 239.391 249.113 246.773C249.113 254.343 246.209 260.638 240.4 265.66C234.629 270.644 226.46 273.136 215.892 273.136C205.1 273.136 196.612 270.681 190.429 265.772C184.246 260.826 181.154 254.043 181.154 245.424H197.68Z" fill="url(#paint0_linear)"/>
<defs>
<linearGradient id="paint0_linear" x1="180" y1="165" x2="180" y2="306" gradientUnits="userSpaceOnUse">
<stop offset="0.296875" stop-color="#E535AB"/>
<stop offset="0.635417" stop-color="#007ACC"/>
</linearGradient>
</defs>
</svg>
